M48
; DRILL file {KiCad 9.0.7} date 2026-04-11T13:07:59-0300
; FORMAT={-:-/ absolute / metric / decimal}
; #@! TF.CreationDate,2026-04-11T13:07:59-03:00
; #@! TF.GenerationSoftware,Kicad,Pcbnew,9.0.7
; #@! TF.FileFunction,NonPlated,1,2,NPTH
FMAT,2
METRIC
; #@! TA.AperFunction,NonPlated,NPTH,ComponentDrill
T1C1.750
; #@! TA.AperFunction,NonPlated,NPTH,ComponentDrill
T2C3.988
%
G90
G05
T1
X123.78Y-94.98
X123.78Y-110.03
X123.78Y-125.08
X133.94Y-94.98
X133.94Y-110.03
X133.94Y-125.08
X138.83Y-94.98
X138.83Y-110.03
X138.83Y-125.08
X148.99Y-94.98
X148.99Y-110.03
X148.99Y-125.08
X153.88Y-94.98
X153.88Y-110.03
X153.88Y-125.08
X164.04Y-94.98
X164.04Y-110.03
X164.04Y-125.08
T2
X128.86Y-94.98
X128.86Y-110.03
X128.86Y-125.08
X143.91Y-94.98
X143.91Y-110.03
X143.91Y-125.08
X158.96Y-94.98
X158.96Y-110.03
X158.96Y-125.08
M30
