%TF.GenerationSoftware,KiCad,Pcbnew,9.0.7*%
%TF.CreationDate,2026-04-11T13:07:11-03:00*%
%TF.ProjectId,PipPad,50697050-6164-42e6-9b69-6361645f7063,rev?*%
%TF.SameCoordinates,Original*%
%TF.FileFunction,Copper,L2,Bot*%
%TF.FilePolarity,Positive*%
%FSLAX46Y46*%
G04 Gerber Fmt 4.6, Leading zero omitted, Abs format (unit mm)*
G04 Created by KiCad (PCBNEW 9.0.7) date 2026-04-11 13:07:11*
%MOMM*%
%LPD*%
G01*
G04 APERTURE LIST*
%TA.AperFunction,ComponentPad*%
%ADD10C,2.300000*%
%TD*%
%TA.AperFunction,ComponentPad*%
%ADD11C,1.524000*%
%TD*%
%TA.AperFunction,ComponentPad*%
%ADD12R,2.000000X2.000000*%
%TD*%
%TA.AperFunction,ComponentPad*%
%ADD13C,2.000000*%
%TD*%
%TA.AperFunction,ComponentPad*%
%ADD14R,3.200000X2.000000*%
%TD*%
%TA.AperFunction,ComponentPad*%
%ADD15R,1.700000X1.700000*%
%TD*%
%TA.AperFunction,ComponentPad*%
%ADD16O,1.700000X1.700000*%
%TD*%
%TA.AperFunction,Conductor*%
%ADD17C,0.200000*%
%TD*%
G04 APERTURE END LIST*
D10*
%TO.P,SW8,1,1*%
%TO.N,/Col2*%
X155150000Y-107490000D03*
%TO.P,SW8,2,2*%
%TO.N,Net-(D8-A)*%
X161500000Y-104950000D03*
%TD*%
%TO.P,SW3,1,1*%
%TO.N,/Col3*%
X125050000Y-122540000D03*
%TO.P,SW3,2,2*%
%TO.N,Net-(D3-A)*%
X131400000Y-120000000D03*
%TD*%
%TO.P,SW5,1,1*%
%TO.N,/Col2*%
X140100000Y-107490000D03*
%TO.P,SW5,2,2*%
%TO.N,Net-(D5-A)*%
X146450000Y-104950000D03*
%TD*%
D11*
%TO.P,U1,1,PA02_A0_D0*%
%TO.N,/Col1*%
X186120000Y-95880000D03*
%TO.P,U1,2,PA4_A1_D1*%
%TO.N,/Col2*%
X183580000Y-95880000D03*
%TO.P,U1,3,PA10_A2_D2*%
%TO.N,/Col3*%
X181040000Y-95880000D03*
%TO.P,U1,4,PA11_A3_D3*%
%TO.N,/Row1*%
X178500000Y-95880000D03*
%TO.P,U1,5,PA8_A4_D4_SDA*%
%TO.N,Net-(J1-Pin_4)*%
X175960000Y-95880000D03*
%TO.P,U1,6,PA9_A5_D5_SCL*%
%TO.N,Net-(J1-Pin_3)*%
X173420000Y-95880000D03*
%TO.P,U1,7,PB08_A6_D6_TX*%
%TO.N,/Row2*%
X170880000Y-95880000D03*
%TO.P,U1,8,PB09_A7_D7_RX*%
%TO.N,/Row3*%
X170880000Y-111120000D03*
%TO.P,U1,9,PA7_A8_D8_SCK*%
%TO.N,Net-(U1-PA7_A8_D8_SCK)*%
X173420000Y-111120000D03*
%TO.P,U1,10,PA5_A9_D9_MISO*%
%TO.N,Net-(U1-PA5_A9_D9_MISO)*%
X175960000Y-111120000D03*
%TO.P,U1,11,PA6_A10_D10_MOSI*%
%TO.N,Net-(U1-PA6_A10_D10_MOSI)*%
X178500000Y-111120000D03*
%TO.P,U1,12,3V3*%
%TO.N,unconnected-(U1-3V3-Pad12)*%
X181040000Y-111120000D03*
%TO.P,U1,13,GND*%
%TO.N,GND*%
X183580000Y-111120000D03*
%TO.P,U1,14,5V*%
%TO.N,VCC*%
X186120000Y-111120000D03*
%TD*%
D12*
%TO.P,SW10,A,A*%
%TO.N,Net-(U1-PA7_A8_D8_SCK)*%
X171250000Y-76500000D03*
D13*
%TO.P,SW10,B,B*%
%TO.N,Net-(U1-PA5_A9_D9_MISO)*%
X171250000Y-81500000D03*
%TO.P,SW10,C,C*%
%TO.N,GND*%
X171250000Y-79000000D03*
D14*
%TO.P,SW10,MP*%
%TO.N,N/C*%
X178750000Y-73400000D03*
X178750000Y-84600000D03*
D13*
%TO.P,SW10,S1,S1*%
%TO.N,GND*%
X185750000Y-81500000D03*
%TO.P,SW10,S2,S2*%
%TO.N,Net-(U1-PA6_A10_D10_MOSI)*%
X185750000Y-76500000D03*
%TD*%
D15*
%TO.P,J1,1,Pin_1*%
%TO.N,GND*%
X156000000Y-74920000D03*
D16*
%TO.P,J1,2,Pin_2*%
%TO.N,VCC*%
X156000000Y-77460000D03*
%TO.P,J1,3,Pin_3*%
%TO.N,Net-(J1-Pin_3)*%
X156000000Y-80000000D03*
%TO.P,J1,4,Pin_4*%
%TO.N,Net-(J1-Pin_4)*%
X156000000Y-82540000D03*
%TD*%
D10*
%TO.P,SW7,1,1*%
%TO.N,/Col1*%
X155150000Y-92440000D03*
%TO.P,SW7,2,2*%
%TO.N,Net-(D7-A)*%
X161500000Y-89900000D03*
%TD*%
%TO.P,SW6,1,1*%
%TO.N,/Col3*%
X140100000Y-122540000D03*
%TO.P,SW6,2,2*%
%TO.N,Net-(D6-A)*%
X146450000Y-120000000D03*
%TD*%
%TO.P,SW2,1,1*%
%TO.N,/Col2*%
X125050000Y-107490000D03*
%TO.P,SW2,2,2*%
%TO.N,Net-(D2-A)*%
X131400000Y-104950000D03*
%TD*%
%TO.P,SW4,1,1*%
%TO.N,/Col1*%
X140100000Y-92440000D03*
%TO.P,SW4,2,2*%
%TO.N,Net-(D4-A)*%
X146450000Y-89900000D03*
%TD*%
%TO.P,SW9,1,1*%
%TO.N,/Col3*%
X155150000Y-122540000D03*
%TO.P,SW9,2,2*%
%TO.N,Net-(D9-A)*%
X161500000Y-120000000D03*
%TD*%
%TO.P,SW1,1,1*%
%TO.N,/Col1*%
X125050000Y-92440000D03*
%TO.P,SW1,2,2*%
%TO.N,Net-(D1-A)*%
X131400000Y-89900000D03*
%TD*%
D17*
%TO.N,Net-(J1-Pin_3)*%
X153699000Y-108091024D02*
X154548976Y-108941000D01*
X162411024Y-106888976D02*
X173420000Y-95880000D01*
X135437976Y-80000000D02*
X123599000Y-91838976D01*
X123599000Y-91838976D02*
X123599000Y-93041024D01*
X123599000Y-108091024D02*
X127882876Y-112374900D01*
X157803048Y-106888976D02*
X162411024Y-106888976D01*
X154548976Y-108941000D02*
X155751024Y-108941000D01*
X123599000Y-101608776D02*
X123599000Y-108091024D01*
X149415124Y-112374900D02*
X153699000Y-108091024D01*
X155751024Y-108941000D02*
X157803048Y-106888976D01*
X123599000Y-93041024D02*
X127882876Y-97324900D01*
X156000000Y-80000000D02*
X135437976Y-80000000D01*
X127882876Y-97324900D02*
X123599000Y-101608776D01*
X127882876Y-112374900D02*
X149415124Y-112374900D01*
%TO.N,GND*%
X187183000Y-82933000D02*
X187183000Y-107517000D01*
X172551000Y-82038892D02*
X172551000Y-80301000D01*
X156000000Y-74920000D02*
X163881000Y-82801000D01*
X173750000Y-81500000D02*
X185750000Y-81500000D01*
X185750000Y-81500000D02*
X187183000Y-82933000D01*
X163881000Y-82801000D02*
X171788892Y-82801000D01*
X172551000Y-80301000D02*
X171250000Y-79000000D01*
X171250000Y-79000000D02*
X173750000Y-81500000D01*
X171788892Y-82801000D02*
X172551000Y-82038892D01*
X187183000Y-107517000D02*
X183580000Y-111120000D01*
%TO.N,/Col1*%
X140100000Y-92440000D02*
X155150000Y-92440000D01*
X155150000Y-92440000D02*
X182680000Y-92440000D01*
X182680000Y-92440000D02*
X186120000Y-95880000D01*
X125050000Y-92440000D02*
X140100000Y-92440000D01*
%TO.N,/Col2*%
X125050000Y-107490000D02*
X140100000Y-107490000D01*
X140100000Y-107490000D02*
X155150000Y-107490000D01*
X155150000Y-107490000D02*
X167823000Y-94817000D01*
X182517000Y-94817000D02*
X183580000Y-95880000D01*
X167823000Y-94817000D02*
X182517000Y-94817000D01*
%TO.N,/Col3*%
X140100000Y-122540000D02*
X155150000Y-122540000D01*
X125050000Y-122540000D02*
X140100000Y-122540000D01*
X155150000Y-122540000D02*
X181040000Y-96650000D01*
X181040000Y-96650000D02*
X181040000Y-95880000D01*
%TO.N,Net-(U1-PA5_A9_D9_MISO)*%
X171250000Y-81500000D02*
X169949000Y-80199000D01*
X186325410Y-112985000D02*
X173781690Y-112985000D01*
X173781690Y-112985000D02*
X172357000Y-111560310D01*
X188386000Y-110924410D02*
X186325410Y-112985000D01*
X186454992Y-74798000D02*
X188386000Y-76729008D01*
X169949000Y-75199000D02*
X170350000Y-74798000D01*
X174897000Y-110057000D02*
X175960000Y-111120000D01*
X172357000Y-111560310D02*
X172357000Y-110679690D01*
X172979690Y-110057000D02*
X174897000Y-110057000D01*
X188386000Y-76729008D02*
X188386000Y-110924410D01*
X169949000Y-80199000D02*
X169949000Y-75199000D01*
X170350000Y-74798000D02*
X186454992Y-74798000D01*
X172357000Y-110679690D02*
X172979690Y-110057000D01*
%TO.N,Net-(U1-PA7_A8_D8_SCK)*%
X186159310Y-112584000D02*
X174884000Y-112584000D01*
X174884000Y-112584000D02*
X173420000Y-111120000D01*
X187985000Y-76895108D02*
X187985000Y-110758310D01*
X171250000Y-76500000D02*
X172551000Y-75199000D01*
X186288892Y-75199000D02*
X187985000Y-76895108D01*
X172551000Y-75199000D02*
X186288892Y-75199000D01*
X187985000Y-110758310D02*
X186159310Y-112584000D01*
%TO.N,Net-(U1-PA6_A10_D10_MOSI)*%
X187584000Y-78334000D02*
X187584000Y-107738690D01*
X184020310Y-112183000D02*
X179563000Y-112183000D01*
X179563000Y-112183000D02*
X178500000Y-111120000D01*
X185750000Y-76500000D02*
X187584000Y-78334000D01*
X187584000Y-107738690D02*
X184643000Y-110679690D01*
X184643000Y-111560310D02*
X184020310Y-112183000D01*
X184643000Y-110679690D02*
X184643000Y-111560310D01*
%TD*%
M02*
