M48
; DRILL file {KiCad 9.0.7} date 2026-04-11T13:07:59-0300
; FORMAT={-:-/ absolute / metric / decimal}
; #@! TF.CreationDate,2026-04-11T13:07:59-03:00
; #@! TF.GenerationSoftware,Kicad,Pcbnew,9.0.7
; #@! TF.FileFunction,Plated,1,2,PTH
FMAT,2
METRIC
; #@! TA.AperFunction,Plated,PTH,ComponentDrill
T1C0.889
; #@! TA.AperFunction,Plated,PTH,ComponentDrill
T2C1.000
; #@! TA.AperFunction,Plated,PTH,ComponentDrill
T3C1.500
; #@! TA.AperFunction,Plated,PTH,ComponentDrill
T4C1.524
%
G90
G05
T1
X170.88Y-95.88
X170.88Y-111.12
X173.42Y-95.88
X173.42Y-111.12
X175.96Y-95.88
X175.96Y-111.12
X178.5Y-95.88
X178.5Y-111.12
X181.04Y-95.88
X181.04Y-111.12
X183.58Y-95.88
X183.58Y-111.12
X186.12Y-95.88
X186.12Y-111.12
T2
X156.0Y-74.92
X156.0Y-77.46
X156.0Y-80.0
X156.0Y-82.54
X171.25Y-76.5
X171.25Y-79.0
X171.25Y-81.5
X185.75Y-76.5
X185.75Y-81.5
T4
X125.05Y-92.44
X125.05Y-107.49
X125.05Y-122.54
X131.4Y-89.9
X131.4Y-104.95
X131.4Y-120.0
X140.1Y-92.44
X140.1Y-107.49
X140.1Y-122.54
X146.45Y-89.9
X146.45Y-104.95
X146.45Y-120.0
X155.15Y-92.44
X155.15Y-107.49
X155.15Y-122.54
X161.5Y-89.9
X161.5Y-104.95
X161.5Y-120.0
T3
G00X178.1Y-73.4
M15
G01X179.4Y-73.4
M16
G05
G00X178.1Y-84.6
M15
G01X179.4Y-84.6
M16
G05
M30
