%TF.GenerationSoftware,KiCad,Pcbnew,9.0.7*%
%TF.CreationDate,2026-04-11T13:07:11-03:00*%
%TF.ProjectId,PipPad,50697050-6164-42e6-9b69-6361645f7063,rev?*%
%TF.SameCoordinates,Original*%
%TF.FileFunction,Legend,Top*%
%TF.FilePolarity,Positive*%
%FSLAX46Y46*%
G04 Gerber Fmt 4.6, Leading zero omitted, Abs format (unit mm)*
G04 Created by KiCad (PCBNEW 9.0.7) date 2026-04-11 13:07:11*
%MOMM*%
%LPD*%
G01*
G04 APERTURE LIST*
%ADD10C,0.150000*%
%ADD11C,0.101600*%
%ADD12C,0.120000*%
%ADD13C,0.127000*%
%ADD14C,0.100000*%
%ADD15C,0.504000*%
%ADD16C,0.040000*%
G04 APERTURE END LIST*
D10*
X165261905Y-135954819D02*
X165261905Y-134954819D01*
X165261905Y-134954819D02*
X165500000Y-134954819D01*
X165500000Y-134954819D02*
X165642857Y-135002438D01*
X165642857Y-135002438D02*
X165738095Y-135097676D01*
X165738095Y-135097676D02*
X165785714Y-135192914D01*
X165785714Y-135192914D02*
X165833333Y-135383390D01*
X165833333Y-135383390D02*
X165833333Y-135526247D01*
X165833333Y-135526247D02*
X165785714Y-135716723D01*
X165785714Y-135716723D02*
X165738095Y-135811961D01*
X165738095Y-135811961D02*
X165642857Y-135907200D01*
X165642857Y-135907200D02*
X165500000Y-135954819D01*
X165500000Y-135954819D02*
X165261905Y-135954819D01*
X166309524Y-135954819D02*
X166500000Y-135954819D01*
X166500000Y-135954819D02*
X166595238Y-135907200D01*
X166595238Y-135907200D02*
X166642857Y-135859580D01*
X166642857Y-135859580D02*
X166738095Y-135716723D01*
X166738095Y-135716723D02*
X166785714Y-135526247D01*
X166785714Y-135526247D02*
X166785714Y-135145295D01*
X166785714Y-135145295D02*
X166738095Y-135050057D01*
X166738095Y-135050057D02*
X166690476Y-135002438D01*
X166690476Y-135002438D02*
X166595238Y-134954819D01*
X166595238Y-134954819D02*
X166404762Y-134954819D01*
X166404762Y-134954819D02*
X166309524Y-135002438D01*
X166309524Y-135002438D02*
X166261905Y-135050057D01*
X166261905Y-135050057D02*
X166214286Y-135145295D01*
X166214286Y-135145295D02*
X166214286Y-135383390D01*
X166214286Y-135383390D02*
X166261905Y-135478628D01*
X166261905Y-135478628D02*
X166309524Y-135526247D01*
X166309524Y-135526247D02*
X166404762Y-135573866D01*
X166404762Y-135573866D02*
X166595238Y-135573866D01*
X166595238Y-135573866D02*
X166690476Y-135526247D01*
X166690476Y-135526247D02*
X166738095Y-135478628D01*
X166738095Y-135478628D02*
X166785714Y-135383390D01*
X144411905Y-135954819D02*
X144411905Y-134954819D01*
X144411905Y-134954819D02*
X144650000Y-134954819D01*
X144650000Y-134954819D02*
X144792857Y-135002438D01*
X144792857Y-135002438D02*
X144888095Y-135097676D01*
X144888095Y-135097676D02*
X144935714Y-135192914D01*
X144935714Y-135192914D02*
X144983333Y-135383390D01*
X144983333Y-135383390D02*
X144983333Y-135526247D01*
X144983333Y-135526247D02*
X144935714Y-135716723D01*
X144935714Y-135716723D02*
X144888095Y-135811961D01*
X144888095Y-135811961D02*
X144792857Y-135907200D01*
X144792857Y-135907200D02*
X144650000Y-135954819D01*
X144650000Y-135954819D02*
X144411905Y-135954819D01*
X145888095Y-134954819D02*
X145411905Y-134954819D01*
X145411905Y-134954819D02*
X145364286Y-135431009D01*
X145364286Y-135431009D02*
X145411905Y-135383390D01*
X145411905Y-135383390D02*
X145507143Y-135335771D01*
X145507143Y-135335771D02*
X145745238Y-135335771D01*
X145745238Y-135335771D02*
X145840476Y-135383390D01*
X145840476Y-135383390D02*
X145888095Y-135431009D01*
X145888095Y-135431009D02*
X145935714Y-135526247D01*
X145935714Y-135526247D02*
X145935714Y-135764342D01*
X145935714Y-135764342D02*
X145888095Y-135859580D01*
X145888095Y-135859580D02*
X145840476Y-135907200D01*
X145840476Y-135907200D02*
X145745238Y-135954819D01*
X145745238Y-135954819D02*
X145507143Y-135954819D01*
X145507143Y-135954819D02*
X145411905Y-135907200D01*
X145411905Y-135907200D02*
X145364286Y-135859580D01*
X139911905Y-135954819D02*
X139911905Y-134954819D01*
X139911905Y-134954819D02*
X140150000Y-134954819D01*
X140150000Y-134954819D02*
X140292857Y-135002438D01*
X140292857Y-135002438D02*
X140388095Y-135097676D01*
X140388095Y-135097676D02*
X140435714Y-135192914D01*
X140435714Y-135192914D02*
X140483333Y-135383390D01*
X140483333Y-135383390D02*
X140483333Y-135526247D01*
X140483333Y-135526247D02*
X140435714Y-135716723D01*
X140435714Y-135716723D02*
X140388095Y-135811961D01*
X140388095Y-135811961D02*
X140292857Y-135907200D01*
X140292857Y-135907200D02*
X140150000Y-135954819D01*
X140150000Y-135954819D02*
X139911905Y-135954819D01*
X141340476Y-135288152D02*
X141340476Y-135954819D01*
X141102381Y-134907200D02*
X140864286Y-135621485D01*
X140864286Y-135621485D02*
X141483333Y-135621485D01*
X134911905Y-135954819D02*
X134911905Y-134954819D01*
X134911905Y-134954819D02*
X135150000Y-134954819D01*
X135150000Y-134954819D02*
X135292857Y-135002438D01*
X135292857Y-135002438D02*
X135388095Y-135097676D01*
X135388095Y-135097676D02*
X135435714Y-135192914D01*
X135435714Y-135192914D02*
X135483333Y-135383390D01*
X135483333Y-135383390D02*
X135483333Y-135526247D01*
X135483333Y-135526247D02*
X135435714Y-135716723D01*
X135435714Y-135716723D02*
X135388095Y-135811961D01*
X135388095Y-135811961D02*
X135292857Y-135907200D01*
X135292857Y-135907200D02*
X135150000Y-135954819D01*
X135150000Y-135954819D02*
X134911905Y-135954819D01*
X135816667Y-134954819D02*
X136435714Y-134954819D01*
X136435714Y-134954819D02*
X136102381Y-135335771D01*
X136102381Y-135335771D02*
X136245238Y-135335771D01*
X136245238Y-135335771D02*
X136340476Y-135383390D01*
X136340476Y-135383390D02*
X136388095Y-135431009D01*
X136388095Y-135431009D02*
X136435714Y-135526247D01*
X136435714Y-135526247D02*
X136435714Y-135764342D01*
X136435714Y-135764342D02*
X136388095Y-135859580D01*
X136388095Y-135859580D02*
X136340476Y-135907200D01*
X136340476Y-135907200D02*
X136245238Y-135954819D01*
X136245238Y-135954819D02*
X135959524Y-135954819D01*
X135959524Y-135954819D02*
X135864286Y-135907200D01*
X135864286Y-135907200D02*
X135816667Y-135859580D01*
X155261905Y-135954819D02*
X155261905Y-134954819D01*
X155261905Y-134954819D02*
X155500000Y-134954819D01*
X155500000Y-134954819D02*
X155642857Y-135002438D01*
X155642857Y-135002438D02*
X155738095Y-135097676D01*
X155738095Y-135097676D02*
X155785714Y-135192914D01*
X155785714Y-135192914D02*
X155833333Y-135383390D01*
X155833333Y-135383390D02*
X155833333Y-135526247D01*
X155833333Y-135526247D02*
X155785714Y-135716723D01*
X155785714Y-135716723D02*
X155738095Y-135811961D01*
X155738095Y-135811961D02*
X155642857Y-135907200D01*
X155642857Y-135907200D02*
X155500000Y-135954819D01*
X155500000Y-135954819D02*
X155261905Y-135954819D01*
X156166667Y-134954819D02*
X156833333Y-134954819D01*
X156833333Y-134954819D02*
X156404762Y-135954819D01*
D11*
X177891190Y-92903479D02*
X177891190Y-93417526D01*
X177891190Y-93417526D02*
X177921428Y-93478002D01*
X177921428Y-93478002D02*
X177951666Y-93508241D01*
X177951666Y-93508241D02*
X178012142Y-93538479D01*
X178012142Y-93538479D02*
X178133095Y-93538479D01*
X178133095Y-93538479D02*
X178193571Y-93508241D01*
X178193571Y-93508241D02*
X178223809Y-93478002D01*
X178223809Y-93478002D02*
X178254047Y-93417526D01*
X178254047Y-93417526D02*
X178254047Y-92903479D01*
X178889047Y-93538479D02*
X178526190Y-93538479D01*
X178707618Y-93538479D02*
X178707618Y-92903479D01*
X178707618Y-92903479D02*
X178647142Y-92994193D01*
X178647142Y-92994193D02*
X178586666Y-93054669D01*
X178586666Y-93054669D02*
X178526190Y-93084907D01*
D10*
X172240476Y-72207200D02*
X172383333Y-72254819D01*
X172383333Y-72254819D02*
X172621428Y-72254819D01*
X172621428Y-72254819D02*
X172716666Y-72207200D01*
X172716666Y-72207200D02*
X172764285Y-72159580D01*
X172764285Y-72159580D02*
X172811904Y-72064342D01*
X172811904Y-72064342D02*
X172811904Y-71969104D01*
X172811904Y-71969104D02*
X172764285Y-71873866D01*
X172764285Y-71873866D02*
X172716666Y-71826247D01*
X172716666Y-71826247D02*
X172621428Y-71778628D01*
X172621428Y-71778628D02*
X172430952Y-71731009D01*
X172430952Y-71731009D02*
X172335714Y-71683390D01*
X172335714Y-71683390D02*
X172288095Y-71635771D01*
X172288095Y-71635771D02*
X172240476Y-71540533D01*
X172240476Y-71540533D02*
X172240476Y-71445295D01*
X172240476Y-71445295D02*
X172288095Y-71350057D01*
X172288095Y-71350057D02*
X172335714Y-71302438D01*
X172335714Y-71302438D02*
X172430952Y-71254819D01*
X172430952Y-71254819D02*
X172669047Y-71254819D01*
X172669047Y-71254819D02*
X172811904Y-71302438D01*
X173145238Y-71254819D02*
X173383333Y-72254819D01*
X173383333Y-72254819D02*
X173573809Y-71540533D01*
X173573809Y-71540533D02*
X173764285Y-72254819D01*
X173764285Y-72254819D02*
X174002381Y-71254819D01*
X174907142Y-72254819D02*
X174335714Y-72254819D01*
X174621428Y-72254819D02*
X174621428Y-71254819D01*
X174621428Y-71254819D02*
X174526190Y-71397676D01*
X174526190Y-71397676D02*
X174430952Y-71492914D01*
X174430952Y-71492914D02*
X174335714Y-71540533D01*
X175526190Y-71254819D02*
X175621428Y-71254819D01*
X175621428Y-71254819D02*
X175716666Y-71302438D01*
X175716666Y-71302438D02*
X175764285Y-71350057D01*
X175764285Y-71350057D02*
X175811904Y-71445295D01*
X175811904Y-71445295D02*
X175859523Y-71635771D01*
X175859523Y-71635771D02*
X175859523Y-71873866D01*
X175859523Y-71873866D02*
X175811904Y-72064342D01*
X175811904Y-72064342D02*
X175764285Y-72159580D01*
X175764285Y-72159580D02*
X175716666Y-72207200D01*
X175716666Y-72207200D02*
X175621428Y-72254819D01*
X175621428Y-72254819D02*
X175526190Y-72254819D01*
X175526190Y-72254819D02*
X175430952Y-72207200D01*
X175430952Y-72207200D02*
X175383333Y-72159580D01*
X175383333Y-72159580D02*
X175335714Y-72064342D01*
X175335714Y-72064342D02*
X175288095Y-71873866D01*
X175288095Y-71873866D02*
X175288095Y-71635771D01*
X175288095Y-71635771D02*
X175335714Y-71445295D01*
X175335714Y-71445295D02*
X175383333Y-71350057D01*
X175383333Y-71350057D02*
X175430952Y-71302438D01*
X175430952Y-71302438D02*
X175526190Y-71254819D01*
X150411905Y-135954819D02*
X150411905Y-134954819D01*
X150411905Y-134954819D02*
X150650000Y-134954819D01*
X150650000Y-134954819D02*
X150792857Y-135002438D01*
X150792857Y-135002438D02*
X150888095Y-135097676D01*
X150888095Y-135097676D02*
X150935714Y-135192914D01*
X150935714Y-135192914D02*
X150983333Y-135383390D01*
X150983333Y-135383390D02*
X150983333Y-135526247D01*
X150983333Y-135526247D02*
X150935714Y-135716723D01*
X150935714Y-135716723D02*
X150888095Y-135811961D01*
X150888095Y-135811961D02*
X150792857Y-135907200D01*
X150792857Y-135907200D02*
X150650000Y-135954819D01*
X150650000Y-135954819D02*
X150411905Y-135954819D01*
X151840476Y-134954819D02*
X151650000Y-134954819D01*
X151650000Y-134954819D02*
X151554762Y-135002438D01*
X151554762Y-135002438D02*
X151507143Y-135050057D01*
X151507143Y-135050057D02*
X151411905Y-135192914D01*
X151411905Y-135192914D02*
X151364286Y-135383390D01*
X151364286Y-135383390D02*
X151364286Y-135764342D01*
X151364286Y-135764342D02*
X151411905Y-135859580D01*
X151411905Y-135859580D02*
X151459524Y-135907200D01*
X151459524Y-135907200D02*
X151554762Y-135954819D01*
X151554762Y-135954819D02*
X151745238Y-135954819D01*
X151745238Y-135954819D02*
X151840476Y-135907200D01*
X151840476Y-135907200D02*
X151888095Y-135859580D01*
X151888095Y-135859580D02*
X151935714Y-135764342D01*
X151935714Y-135764342D02*
X151935714Y-135526247D01*
X151935714Y-135526247D02*
X151888095Y-135431009D01*
X151888095Y-135431009D02*
X151840476Y-135383390D01*
X151840476Y-135383390D02*
X151745238Y-135335771D01*
X151745238Y-135335771D02*
X151554762Y-135335771D01*
X151554762Y-135335771D02*
X151459524Y-135383390D01*
X151459524Y-135383390D02*
X151411905Y-135431009D01*
X151411905Y-135431009D02*
X151364286Y-135526247D01*
X120854819Y-78973333D02*
X121569104Y-78973333D01*
X121569104Y-78973333D02*
X121711961Y-79020952D01*
X121711961Y-79020952D02*
X121807200Y-79116190D01*
X121807200Y-79116190D02*
X121854819Y-79259047D01*
X121854819Y-79259047D02*
X121854819Y-79354285D01*
X121854819Y-77973333D02*
X121854819Y-78544761D01*
X121854819Y-78259047D02*
X120854819Y-78259047D01*
X120854819Y-78259047D02*
X120997676Y-78354285D01*
X120997676Y-78354285D02*
X121092914Y-78449523D01*
X121092914Y-78449523D02*
X121140533Y-78544761D01*
X154303450Y-83450713D02*
X154339164Y-83343571D01*
X154339164Y-83343571D02*
X154339164Y-83164999D01*
X154339164Y-83164999D02*
X154303450Y-83093571D01*
X154303450Y-83093571D02*
X154267735Y-83057856D01*
X154267735Y-83057856D02*
X154196307Y-83022142D01*
X154196307Y-83022142D02*
X154124878Y-83022142D01*
X154124878Y-83022142D02*
X154053450Y-83057856D01*
X154053450Y-83057856D02*
X154017735Y-83093571D01*
X154017735Y-83093571D02*
X153982021Y-83164999D01*
X153982021Y-83164999D02*
X153946307Y-83307856D01*
X153946307Y-83307856D02*
X153910592Y-83379285D01*
X153910592Y-83379285D02*
X153874878Y-83414999D01*
X153874878Y-83414999D02*
X153803450Y-83450713D01*
X153803450Y-83450713D02*
X153732021Y-83450713D01*
X153732021Y-83450713D02*
X153660592Y-83414999D01*
X153660592Y-83414999D02*
X153624878Y-83379285D01*
X153624878Y-83379285D02*
X153589164Y-83307856D01*
X153589164Y-83307856D02*
X153589164Y-83129285D01*
X153589164Y-83129285D02*
X153624878Y-83022142D01*
X154339164Y-82700713D02*
X153589164Y-82700713D01*
X153589164Y-82700713D02*
X153589164Y-82522142D01*
X153589164Y-82522142D02*
X153624878Y-82414999D01*
X153624878Y-82414999D02*
X153696307Y-82343570D01*
X153696307Y-82343570D02*
X153767735Y-82307856D01*
X153767735Y-82307856D02*
X153910592Y-82272142D01*
X153910592Y-82272142D02*
X154017735Y-82272142D01*
X154017735Y-82272142D02*
X154160592Y-82307856D01*
X154160592Y-82307856D02*
X154232021Y-82343570D01*
X154232021Y-82343570D02*
X154303450Y-82414999D01*
X154303450Y-82414999D02*
X154339164Y-82522142D01*
X154339164Y-82522142D02*
X154339164Y-82700713D01*
X154124878Y-81986427D02*
X154124878Y-81629285D01*
X154339164Y-82057856D02*
X153589164Y-81807856D01*
X153589164Y-81807856D02*
X154339164Y-81557856D01*
X154303450Y-80892856D02*
X154339164Y-80785714D01*
X154339164Y-80785714D02*
X154339164Y-80607142D01*
X154339164Y-80607142D02*
X154303450Y-80535714D01*
X154303450Y-80535714D02*
X154267735Y-80499999D01*
X154267735Y-80499999D02*
X154196307Y-80464285D01*
X154196307Y-80464285D02*
X154124878Y-80464285D01*
X154124878Y-80464285D02*
X154053450Y-80499999D01*
X154053450Y-80499999D02*
X154017735Y-80535714D01*
X154017735Y-80535714D02*
X153982021Y-80607142D01*
X153982021Y-80607142D02*
X153946307Y-80749999D01*
X153946307Y-80749999D02*
X153910592Y-80821428D01*
X153910592Y-80821428D02*
X153874878Y-80857142D01*
X153874878Y-80857142D02*
X153803450Y-80892856D01*
X153803450Y-80892856D02*
X153732021Y-80892856D01*
X153732021Y-80892856D02*
X153660592Y-80857142D01*
X153660592Y-80857142D02*
X153624878Y-80821428D01*
X153624878Y-80821428D02*
X153589164Y-80749999D01*
X153589164Y-80749999D02*
X153589164Y-80571428D01*
X153589164Y-80571428D02*
X153624878Y-80464285D01*
X154267735Y-79714285D02*
X154303450Y-79749999D01*
X154303450Y-79749999D02*
X154339164Y-79857142D01*
X154339164Y-79857142D02*
X154339164Y-79928570D01*
X154339164Y-79928570D02*
X154303450Y-80035713D01*
X154303450Y-80035713D02*
X154232021Y-80107142D01*
X154232021Y-80107142D02*
X154160592Y-80142856D01*
X154160592Y-80142856D02*
X154017735Y-80178570D01*
X154017735Y-80178570D02*
X153910592Y-80178570D01*
X153910592Y-80178570D02*
X153767735Y-80142856D01*
X153767735Y-80142856D02*
X153696307Y-80107142D01*
X153696307Y-80107142D02*
X153624878Y-80035713D01*
X153624878Y-80035713D02*
X153589164Y-79928570D01*
X153589164Y-79928570D02*
X153589164Y-79857142D01*
X153589164Y-79857142D02*
X153624878Y-79749999D01*
X153624878Y-79749999D02*
X153660592Y-79714285D01*
X154339164Y-79035713D02*
X154339164Y-79392856D01*
X154339164Y-79392856D02*
X153589164Y-79392856D01*
X153589164Y-78459999D02*
X154339164Y-78209999D01*
X154339164Y-78209999D02*
X153589164Y-77959999D01*
X154267735Y-77281428D02*
X154303450Y-77317142D01*
X154303450Y-77317142D02*
X154339164Y-77424285D01*
X154339164Y-77424285D02*
X154339164Y-77495713D01*
X154339164Y-77495713D02*
X154303450Y-77602856D01*
X154303450Y-77602856D02*
X154232021Y-77674285D01*
X154232021Y-77674285D02*
X154160592Y-77709999D01*
X154160592Y-77709999D02*
X154017735Y-77745713D01*
X154017735Y-77745713D02*
X153910592Y-77745713D01*
X153910592Y-77745713D02*
X153767735Y-77709999D01*
X153767735Y-77709999D02*
X153696307Y-77674285D01*
X153696307Y-77674285D02*
X153624878Y-77602856D01*
X153624878Y-77602856D02*
X153589164Y-77495713D01*
X153589164Y-77495713D02*
X153589164Y-77424285D01*
X153589164Y-77424285D02*
X153624878Y-77317142D01*
X153624878Y-77317142D02*
X153660592Y-77281428D01*
X154267735Y-76531428D02*
X154303450Y-76567142D01*
X154303450Y-76567142D02*
X154339164Y-76674285D01*
X154339164Y-76674285D02*
X154339164Y-76745713D01*
X154339164Y-76745713D02*
X154303450Y-76852856D01*
X154303450Y-76852856D02*
X154232021Y-76924285D01*
X154232021Y-76924285D02*
X154160592Y-76959999D01*
X154160592Y-76959999D02*
X154017735Y-76995713D01*
X154017735Y-76995713D02*
X153910592Y-76995713D01*
X153910592Y-76995713D02*
X153767735Y-76959999D01*
X153767735Y-76959999D02*
X153696307Y-76924285D01*
X153696307Y-76924285D02*
X153624878Y-76852856D01*
X153624878Y-76852856D02*
X153589164Y-76745713D01*
X153589164Y-76745713D02*
X153589164Y-76674285D01*
X153589164Y-76674285D02*
X153624878Y-76567142D01*
X153624878Y-76567142D02*
X153660592Y-76531428D01*
X153624878Y-75491428D02*
X153589164Y-75562857D01*
X153589164Y-75562857D02*
X153589164Y-75669999D01*
X153589164Y-75669999D02*
X153624878Y-75777142D01*
X153624878Y-75777142D02*
X153696307Y-75848571D01*
X153696307Y-75848571D02*
X153767735Y-75884285D01*
X153767735Y-75884285D02*
X153910592Y-75919999D01*
X153910592Y-75919999D02*
X154017735Y-75919999D01*
X154017735Y-75919999D02*
X154160592Y-75884285D01*
X154160592Y-75884285D02*
X154232021Y-75848571D01*
X154232021Y-75848571D02*
X154303450Y-75777142D01*
X154303450Y-75777142D02*
X154339164Y-75669999D01*
X154339164Y-75669999D02*
X154339164Y-75598571D01*
X154339164Y-75598571D02*
X154303450Y-75491428D01*
X154303450Y-75491428D02*
X154267735Y-75455714D01*
X154267735Y-75455714D02*
X154017735Y-75455714D01*
X154017735Y-75455714D02*
X154017735Y-75598571D01*
X154339164Y-75134285D02*
X153589164Y-75134285D01*
X153589164Y-75134285D02*
X154339164Y-74705714D01*
X154339164Y-74705714D02*
X153589164Y-74705714D01*
X154339164Y-74348571D02*
X153589164Y-74348571D01*
X153589164Y-74348571D02*
X153589164Y-74170000D01*
X153589164Y-74170000D02*
X153624878Y-74062857D01*
X153624878Y-74062857D02*
X153696307Y-73991428D01*
X153696307Y-73991428D02*
X153767735Y-73955714D01*
X153767735Y-73955714D02*
X153910592Y-73920000D01*
X153910592Y-73920000D02*
X154017735Y-73920000D01*
X154017735Y-73920000D02*
X154160592Y-73955714D01*
X154160592Y-73955714D02*
X154232021Y-73991428D01*
X154232021Y-73991428D02*
X154303450Y-74062857D01*
X154303450Y-74062857D02*
X154339164Y-74170000D01*
X154339164Y-74170000D02*
X154339164Y-74348571D01*
X134571428Y-78184819D02*
X134761904Y-78184819D01*
X134761904Y-78184819D02*
X134857142Y-78232438D01*
X134857142Y-78232438D02*
X134952380Y-78327676D01*
X134952380Y-78327676D02*
X134999999Y-78518152D01*
X134999999Y-78518152D02*
X134999999Y-78851485D01*
X134999999Y-78851485D02*
X134952380Y-79041961D01*
X134952380Y-79041961D02*
X134857142Y-79137200D01*
X134857142Y-79137200D02*
X134761904Y-79184819D01*
X134761904Y-79184819D02*
X134571428Y-79184819D01*
X134571428Y-79184819D02*
X134476190Y-79137200D01*
X134476190Y-79137200D02*
X134380952Y-79041961D01*
X134380952Y-79041961D02*
X134333333Y-78851485D01*
X134333333Y-78851485D02*
X134333333Y-78518152D01*
X134333333Y-78518152D02*
X134380952Y-78327676D01*
X134380952Y-78327676D02*
X134476190Y-78232438D01*
X134476190Y-78232438D02*
X134571428Y-78184819D01*
X135904761Y-79184819D02*
X135428571Y-79184819D01*
X135428571Y-79184819D02*
X135428571Y-78184819D01*
X136238095Y-78661009D02*
X136571428Y-78661009D01*
X136714285Y-79184819D02*
X136238095Y-79184819D01*
X136238095Y-79184819D02*
X136238095Y-78184819D01*
X136238095Y-78184819D02*
X136714285Y-78184819D01*
X137142857Y-79184819D02*
X137142857Y-78184819D01*
X137142857Y-78184819D02*
X137380952Y-78184819D01*
X137380952Y-78184819D02*
X137523809Y-78232438D01*
X137523809Y-78232438D02*
X137619047Y-78327676D01*
X137619047Y-78327676D02*
X137666666Y-78422914D01*
X137666666Y-78422914D02*
X137714285Y-78613390D01*
X137714285Y-78613390D02*
X137714285Y-78756247D01*
X137714285Y-78756247D02*
X137666666Y-78946723D01*
X137666666Y-78946723D02*
X137619047Y-79041961D01*
X137619047Y-79041961D02*
X137523809Y-79137200D01*
X137523809Y-79137200D02*
X137380952Y-79184819D01*
X137380952Y-79184819D02*
X137142857Y-79184819D01*
X138904762Y-79184819D02*
X138904762Y-78184819D01*
X138904762Y-78184819D02*
X139285714Y-78184819D01*
X139285714Y-78184819D02*
X139380952Y-78232438D01*
X139380952Y-78232438D02*
X139428571Y-78280057D01*
X139428571Y-78280057D02*
X139476190Y-78375295D01*
X139476190Y-78375295D02*
X139476190Y-78518152D01*
X139476190Y-78518152D02*
X139428571Y-78613390D01*
X139428571Y-78613390D02*
X139380952Y-78661009D01*
X139380952Y-78661009D02*
X139285714Y-78708628D01*
X139285714Y-78708628D02*
X138904762Y-78708628D01*
X140333333Y-79184819D02*
X140333333Y-78661009D01*
X140333333Y-78661009D02*
X140285714Y-78565771D01*
X140285714Y-78565771D02*
X140190476Y-78518152D01*
X140190476Y-78518152D02*
X140000000Y-78518152D01*
X140000000Y-78518152D02*
X139904762Y-78565771D01*
X140333333Y-79137200D02*
X140238095Y-79184819D01*
X140238095Y-79184819D02*
X140000000Y-79184819D01*
X140000000Y-79184819D02*
X139904762Y-79137200D01*
X139904762Y-79137200D02*
X139857143Y-79041961D01*
X139857143Y-79041961D02*
X139857143Y-78946723D01*
X139857143Y-78946723D02*
X139904762Y-78851485D01*
X139904762Y-78851485D02*
X140000000Y-78803866D01*
X140000000Y-78803866D02*
X140238095Y-78803866D01*
X140238095Y-78803866D02*
X140333333Y-78756247D01*
X140809524Y-78518152D02*
X140809524Y-79184819D01*
X140809524Y-78613390D02*
X140857143Y-78565771D01*
X140857143Y-78565771D02*
X140952381Y-78518152D01*
X140952381Y-78518152D02*
X141095238Y-78518152D01*
X141095238Y-78518152D02*
X141190476Y-78565771D01*
X141190476Y-78565771D02*
X141238095Y-78661009D01*
X141238095Y-78661009D02*
X141238095Y-79184819D01*
X142095238Y-79137200D02*
X142000000Y-79184819D01*
X142000000Y-79184819D02*
X141809524Y-79184819D01*
X141809524Y-79184819D02*
X141714286Y-79137200D01*
X141714286Y-79137200D02*
X141666667Y-79041961D01*
X141666667Y-79041961D02*
X141666667Y-78661009D01*
X141666667Y-78661009D02*
X141714286Y-78565771D01*
X141714286Y-78565771D02*
X141809524Y-78518152D01*
X141809524Y-78518152D02*
X142000000Y-78518152D01*
X142000000Y-78518152D02*
X142095238Y-78565771D01*
X142095238Y-78565771D02*
X142142857Y-78661009D01*
X142142857Y-78661009D02*
X142142857Y-78756247D01*
X142142857Y-78756247D02*
X141666667Y-78851485D01*
X142714286Y-79184819D02*
X142619048Y-79137200D01*
X142619048Y-79137200D02*
X142571429Y-79041961D01*
X142571429Y-79041961D02*
X142571429Y-78184819D01*
X160261905Y-135954819D02*
X160261905Y-134954819D01*
X160261905Y-134954819D02*
X160500000Y-134954819D01*
X160500000Y-134954819D02*
X160642857Y-135002438D01*
X160642857Y-135002438D02*
X160738095Y-135097676D01*
X160738095Y-135097676D02*
X160785714Y-135192914D01*
X160785714Y-135192914D02*
X160833333Y-135383390D01*
X160833333Y-135383390D02*
X160833333Y-135526247D01*
X160833333Y-135526247D02*
X160785714Y-135716723D01*
X160785714Y-135716723D02*
X160738095Y-135811961D01*
X160738095Y-135811961D02*
X160642857Y-135907200D01*
X160642857Y-135907200D02*
X160500000Y-135954819D01*
X160500000Y-135954819D02*
X160261905Y-135954819D01*
X161404762Y-135383390D02*
X161309524Y-135335771D01*
X161309524Y-135335771D02*
X161261905Y-135288152D01*
X161261905Y-135288152D02*
X161214286Y-135192914D01*
X161214286Y-135192914D02*
X161214286Y-135145295D01*
X161214286Y-135145295D02*
X161261905Y-135050057D01*
X161261905Y-135050057D02*
X161309524Y-135002438D01*
X161309524Y-135002438D02*
X161404762Y-134954819D01*
X161404762Y-134954819D02*
X161595238Y-134954819D01*
X161595238Y-134954819D02*
X161690476Y-135002438D01*
X161690476Y-135002438D02*
X161738095Y-135050057D01*
X161738095Y-135050057D02*
X161785714Y-135145295D01*
X161785714Y-135145295D02*
X161785714Y-135192914D01*
X161785714Y-135192914D02*
X161738095Y-135288152D01*
X161738095Y-135288152D02*
X161690476Y-135335771D01*
X161690476Y-135335771D02*
X161595238Y-135383390D01*
X161595238Y-135383390D02*
X161404762Y-135383390D01*
X161404762Y-135383390D02*
X161309524Y-135431009D01*
X161309524Y-135431009D02*
X161261905Y-135478628D01*
X161261905Y-135478628D02*
X161214286Y-135573866D01*
X161214286Y-135573866D02*
X161214286Y-135764342D01*
X161214286Y-135764342D02*
X161261905Y-135859580D01*
X161261905Y-135859580D02*
X161309524Y-135907200D01*
X161309524Y-135907200D02*
X161404762Y-135954819D01*
X161404762Y-135954819D02*
X161595238Y-135954819D01*
X161595238Y-135954819D02*
X161690476Y-135907200D01*
X161690476Y-135907200D02*
X161738095Y-135859580D01*
X161738095Y-135859580D02*
X161785714Y-135764342D01*
X161785714Y-135764342D02*
X161785714Y-135573866D01*
X161785714Y-135573866D02*
X161738095Y-135478628D01*
X161738095Y-135478628D02*
X161690476Y-135431009D01*
X161690476Y-135431009D02*
X161595238Y-135383390D01*
X124561905Y-135954819D02*
X124561905Y-134954819D01*
X124561905Y-134954819D02*
X124800000Y-134954819D01*
X124800000Y-134954819D02*
X124942857Y-135002438D01*
X124942857Y-135002438D02*
X125038095Y-135097676D01*
X125038095Y-135097676D02*
X125085714Y-135192914D01*
X125085714Y-135192914D02*
X125133333Y-135383390D01*
X125133333Y-135383390D02*
X125133333Y-135526247D01*
X125133333Y-135526247D02*
X125085714Y-135716723D01*
X125085714Y-135716723D02*
X125038095Y-135811961D01*
X125038095Y-135811961D02*
X124942857Y-135907200D01*
X124942857Y-135907200D02*
X124800000Y-135954819D01*
X124800000Y-135954819D02*
X124561905Y-135954819D01*
X126085714Y-135954819D02*
X125514286Y-135954819D01*
X125800000Y-135954819D02*
X125800000Y-134954819D01*
X125800000Y-134954819D02*
X125704762Y-135097676D01*
X125704762Y-135097676D02*
X125609524Y-135192914D01*
X125609524Y-135192914D02*
X125514286Y-135240533D01*
X129911905Y-135954819D02*
X129911905Y-134954819D01*
X129911905Y-134954819D02*
X130150000Y-134954819D01*
X130150000Y-134954819D02*
X130292857Y-135002438D01*
X130292857Y-135002438D02*
X130388095Y-135097676D01*
X130388095Y-135097676D02*
X130435714Y-135192914D01*
X130435714Y-135192914D02*
X130483333Y-135383390D01*
X130483333Y-135383390D02*
X130483333Y-135526247D01*
X130483333Y-135526247D02*
X130435714Y-135716723D01*
X130435714Y-135716723D02*
X130388095Y-135811961D01*
X130388095Y-135811961D02*
X130292857Y-135907200D01*
X130292857Y-135907200D02*
X130150000Y-135954819D01*
X130150000Y-135954819D02*
X129911905Y-135954819D01*
X130864286Y-135050057D02*
X130911905Y-135002438D01*
X130911905Y-135002438D02*
X131007143Y-134954819D01*
X131007143Y-134954819D02*
X131245238Y-134954819D01*
X131245238Y-134954819D02*
X131340476Y-135002438D01*
X131340476Y-135002438D02*
X131388095Y-135050057D01*
X131388095Y-135050057D02*
X131435714Y-135145295D01*
X131435714Y-135145295D02*
X131435714Y-135240533D01*
X131435714Y-135240533D02*
X131388095Y-135383390D01*
X131388095Y-135383390D02*
X130816667Y-135954819D01*
X130816667Y-135954819D02*
X131435714Y-135954819D01*
D12*
%TO.C,D9*%
X168360000Y-132500000D02*
X164350000Y-132500000D01*
X168360000Y-134500000D02*
X164350000Y-134500000D01*
X168360000Y-134500000D02*
X168360000Y-132500000D01*
%TO.C,D5*%
X148360000Y-132500000D02*
X144350000Y-132500000D01*
X148360000Y-134500000D02*
X144350000Y-134500000D01*
X148360000Y-134500000D02*
X148360000Y-132500000D01*
%TO.C,D4*%
X143010000Y-132500000D02*
X139000000Y-132500000D01*
X143010000Y-134500000D02*
X139000000Y-134500000D01*
X143010000Y-134500000D02*
X143010000Y-132500000D01*
%TO.C,D3*%
X138010000Y-132500000D02*
X134000000Y-132500000D01*
X138010000Y-134500000D02*
X134000000Y-134500000D01*
X138010000Y-134500000D02*
X138010000Y-132500000D01*
%TO.C,D7*%
X158360000Y-132500000D02*
X154350000Y-132500000D01*
X158360000Y-134500000D02*
X154350000Y-134500000D01*
X158360000Y-134500000D02*
X158360000Y-132500000D01*
D13*
%TO.C,U1*%
X168086000Y-96515000D02*
X168086000Y-110485000D01*
X169991000Y-94610000D02*
X187136000Y-94610000D01*
X169991000Y-112390000D02*
X187136000Y-112390000D01*
X189041000Y-99005000D02*
X189951272Y-99008728D01*
D14*
X189041000Y-110485000D02*
X189041000Y-96515000D01*
D13*
X189041000Y-110485000D02*
X189041000Y-96515000D01*
X189951000Y-108004000D02*
X189041000Y-108004000D01*
X190451000Y-99508728D02*
X190451000Y-107504000D01*
X168086000Y-96515000D02*
G75*
G02*
X169991000Y-94610000I1905001J-1D01*
G01*
X169991000Y-112390000D02*
G75*
G02*
X168086000Y-110485000I1J1905001D01*
G01*
X187136000Y-94610000D02*
G75*
G02*
X189041000Y-96515000I0J-1905000D01*
G01*
X189041000Y-110485000D02*
G75*
G02*
X187136000Y-112390000I-1905000J0D01*
G01*
X189951272Y-99008728D02*
G75*
G02*
X190450972Y-99508728I-272J-499972D01*
G01*
X190451000Y-107504000D02*
G75*
G02*
X189951000Y-108004000I-500000J0D01*
G01*
D15*
X188172000Y-95693000D02*
G75*
G02*
X187668000Y-95693000I-252000J0D01*
G01*
X187668000Y-95693000D02*
G75*
G02*
X188172000Y-95693000I252000J0D01*
G01*
X189052000Y-94550000D02*
G75*
G02*
X188548000Y-94550000I-252000J0D01*
G01*
X188548000Y-94550000D02*
G75*
G02*
X189052000Y-94550000I252000J0D01*
G01*
D12*
%TO.C,SW10*%
X170950000Y-74900000D02*
X171550000Y-74900000D01*
X171250000Y-75200000D02*
X170950000Y-74900000D01*
X171550000Y-74900000D02*
X171250000Y-75200000D01*
X172650000Y-73100000D02*
X172650000Y-84900000D01*
X176750000Y-73100000D02*
X172650000Y-73100000D01*
X176750000Y-84900000D02*
X172650000Y-84900000D01*
X178250000Y-79000000D02*
X179250000Y-79000000D01*
X178750000Y-78500000D02*
X178750000Y-79500000D01*
X180750000Y-73100000D02*
X184850000Y-73100000D01*
X184850000Y-73100000D02*
X184850000Y-75500000D01*
X184850000Y-77700000D02*
X184850000Y-80300000D01*
X184850000Y-82500000D02*
X184850000Y-84900000D01*
X184850000Y-84900000D02*
X180750000Y-84900000D01*
X181750000Y-79000000D02*
G75*
G02*
X175750000Y-79000000I-3000000J0D01*
G01*
X175750000Y-79000000D02*
G75*
G02*
X181750000Y-79000000I3000000J0D01*
G01*
%TO.C,D6*%
X153510000Y-132500000D02*
X149500000Y-132500000D01*
X153510000Y-134500000D02*
X149500000Y-134500000D01*
X153510000Y-134500000D02*
X153510000Y-132500000D01*
D16*
%TO.C,J1*%
X119500000Y-72730000D02*
X119500000Y-84730000D01*
X119500000Y-84730000D02*
X157500000Y-84730000D01*
X123000000Y-72730000D02*
X123000000Y-84730000D01*
X152500000Y-72730000D02*
X152500000Y-84730000D01*
X157500000Y-72730000D02*
X119500000Y-72730000D01*
X157500000Y-84730000D02*
X157500000Y-72730000D01*
D12*
%TO.C,D8*%
X163360000Y-132500000D02*
X159350000Y-132500000D01*
X163360000Y-134500000D02*
X159350000Y-134500000D01*
X163360000Y-134500000D02*
X163360000Y-132500000D01*
%TO.C,D1*%
X127660000Y-132500000D02*
X123650000Y-132500000D01*
X127660000Y-134500000D02*
X123650000Y-134500000D01*
X127660000Y-134500000D02*
X127660000Y-132500000D01*
%TO.C,D2*%
X133010000Y-132500000D02*
X129000000Y-132500000D01*
X133010000Y-134500000D02*
X129000000Y-134500000D01*
X133010000Y-134500000D02*
X133010000Y-132500000D01*
%TD*%
M02*
